<?xml version="1.0" encoding="utf-8"?>
<!-- Generator: Adobe Illustrator 17.0.0, SVG Export Plug-In . SVG Version: 6.00 Build 0)  -->
<!DOCTYPE svg PUBLIC "-//W3C//DTD SVG 1.1//EN" "http://www.w3.org/Graphics/SVG/1.1/DTD/svg11.dtd">
<svg version="1.1"
	 id="svg1223" xmlns:rdf="http://www.w3.org/1999/02/22-rdf-syntax-ns#" xmlns:dc="http://purl.org/dc/elements/1.1/" xmlns:svg="http://www.w3.org/2000/svg" xmlns:sodipodi="http://sodipodi.sourceforge.net/DTD/sodipodi-0.dtd" xmlns:cc="http://creativecommons.org/ns#" xmlns:inkscape="http://www.inkscape.org/namespaces/inkscape" sodipodi:docname="Prometheus_24-10-2019.svg" inkscape:version="0.92.1 r15371"
	 xmlns="http://www.w3.org/2000/svg" xmlns:xlink="http://www.w3.org/1999/xlink" x="0px" y="0px" width="595.276px"
	 height="841.89px" viewBox="0 0 595.276 841.89" enable-background="new 0 0 595.276 841.89" xml:space="preserve">
<sodipodi:namedview  showgrid="false" inkscape:zoom="1" inkscape:cy="941.11564" borderopacity="1.0" id="base" bordercolor="#666666" inkscape:cx="193.91011" pagecolor="#ffffff" inkscape:snap-nodes="false" inkscape:window-maximized="1" inkscape:window-y="-8" inkscape:current-layer="layer1" inkscape:document-units="mm" inkscape:pageopacity="0.0" inkscape:window-x="-8" inkscape:window-height="1017" inkscape:window-width="1920" inkscape:pageshadow="2">
	</sodipodi:namedview>
<g id="layer1" inkscape:label="Ebene 1" inkscape:groupmode="layer">
	<g id="g5218" transform="matrix(1.8495358,0,0,1.8495358,-168.64683,-58.145356)">
		<g id="g4759">
			<g id="g4685">
				<path id="path4586_1_" fill="#820545" d="M202.65,90.604"/>
			</g>
		</g>
	</g>
	<g id="g5326" transform="matrix(1.8495358,0,0,1.8495358,-117.73403,-58.145539)">
		
			<path id="path1181" inkscape:export-ydpi="371.04413" inkscape:export-xdpi="371.04413" inkscape:connector-curvature="0" sodipodi:nodetypes="ccccccccccccccccccccccccccccccccccccccccccccccccc" fill="#820545" d="
			M153.316,45.531c-4.85-0.509-5.52,3.447-7.363,5.892c-1.13,0.568-2.024-0.477-3.855-0.564c-4.143-4.389-3.728-2.135-9.954-5.419
			c-1.143-1.089-1.588-1.263-2.934-0.859c-7.226,2.594-9.321,5.74-12.581,8.76c-3.994,0.267-6.954,0.649-7.349,1.168
			c-0.649,1.829,0.537,3.107,2.037,4.29c2.723-0.962,5.473-1.844,7.919-3.625c2.262-2.829,6.399-3.076,9.664-5.113
			c2.72,2.966,3.407,3.148,5.647,4.179c-5.053,3.007-11.576,10.952-16.939,13.566c-2.277,1.058-6.628,4.906-8.632,9.449
			c-1.339,0.575-2.213,1.347-3.047,2.135c-1.575,1.631-4.76,6.378-7.14,9.567c-1.407,0.332-2.698,1.138-3.927,2.19
			c-2.988,2.439-4.965,7.341-10.743,12.409c-1.889,0.291-2.994,0.844-3.505,1.598c-0.435,0.97-0.348,9.249,2.005,9.417
			c1.489,0.341,2.424,0.033,3.511-0.097c-0.008-0.418,0.16-0.821-0.399-1.283c-0.559-0.212-1.136-0.355-1.537-1.123
			c0.145-2.01,0.845-3.499,1.523-5.008c3.43-4.199,7.979-7.899,11.485-10.724c1.408-0.87,2.427-2.017,4.33-2.534
			c1.174-0.616,1.834-1.686,2.589-2.672c4.604-3.044,9.467-5.828,13.594-9.351c5.652,2.334,11.282,2.97,16.633,5.245
			c-3.395,3.76-3.989,7.89-8.987,13.924c-4.445,3.748-1.41,4.37,2.82,8.606c1.538,0.536,2.32,0.333,3.232,0.257
			c0.181-0.228,0.444-0.292,0.338-1.099c-1.524-1.38-3.062-2.743-3.44-5.528c5.05-8.302,12.662-12.509,13.853-16.916
			c-0.19-3.177-7.964-9.81-15.343-11.602c5.057-4.419,9.159-3.025,13.984-7.522c1.421,4.204,4.6,6.949,7.073,10.195
			c7.96-5.503,11.164-6.25,14.242-7.627c1.458-1.696,2.67-2.094,2.858-2.901c0.275-1.53,0.472-3.678-0.535-4.296
			c-1.763-0.522-4.827,3.36-6.575,5.466c-4.472,2.307-4.584,0.83-8.132,2.091c-0.513-3.105-1.577-4.491-3.403-6.367
			c0.511-2.046,0.57-3.917-0.052-5.522c0.846-1.193,1.82-2.024,2.778-2.018c1.342,0.27,1.152,0.839,2.338,2.062
			c0.776-0.139,6.652-5.262,6.47-8.612C157.473,47.385,155.583,45.65,153.316,45.531L153.316,45.531z"/>
		<g id="g5271">
			<path id="path1102" inkscape:connector-curvature="0" sodipodi:nodetypes="cccc" fill="#820545" d="M112.215,64.087l0.947,10.038
				l6.061-5.303L112.215,64.087z"/>
			<path id="path1104" inkscape:connector-curvature="0" sodipodi:nodetypes="cccc" fill="#820545" d="M98.143,78.69l8.201-0.398
				l-3.22,6.061L98.143,78.69z"/>
			<path id="path1106" inkscape:connector-curvature="0" sodipodi:nodetypes="cccc" fill="#820545" d="M105.2,75.364l0.099,6.61
				l5.909-6.894L105.2,75.364z"/>
			<path id="path1108" inkscape:connector-curvature="0" sodipodi:nodetypes="cccc" fill="#820545" d="M88.35,94.013l4.735-7.197
				l1.515,7.008L88.35,94.013z"/>
			<path id="path1110" inkscape:connector-curvature="0" sodipodi:nodetypes="cccc" fill="#820545" d="M96.874,91.55l-1.136-7.766
				l7.197,3.788L96.874,91.55z"/>
			<path id="path1112" inkscape:connector-curvature="0" sodipodi:nodetypes="cccc" fill="#820545" d="M75.66,102.725l8.144-3.409
				l-2.652,8.334L75.66,102.725z"/>
			<path id="path1114" inkscape:connector-curvature="0" sodipodi:nodetypes="cccc" fill="#820545" d="M85.131,93.634l6.629,1.894
				l-3.977,5.682L85.131,93.634z"/>
			<path id="path1116" inkscape:connector-curvature="0" sodipodi:nodetypes="cccc" fill="#820545" d="M124.337,57.268l-7.387,4.735
				l9.091,2.083L124.337,57.268z"/>
			<path id="path1118" inkscape:connector-curvature="0" sodipodi:nodetypes="cccc" fill="#820545" d="M129.83,52.723l-2.841,5.493
				l5.493,0L129.83,52.723z"/>
			<path id="path1120" inkscape:connector-curvature="0" sodipodi:nodetypes="cccc" fill="#820545" d="M117.328,54.977l-0.829-5.474
				l-3.272,2.95L117.328,54.977z"/>
			<path id="path1122" inkscape:connector-curvature="0" sodipodi:nodetypes="cccc" fill="#820545" d="M129.314,45.18l-3.185-1.045
				l-1.739,4.454L129.314,45.18z"/>
			<path id="path1124" inkscape:connector-curvature="0" sodipodi:nodetypes="cccc" fill="#820545" d="M105.304,64.885l-2.841,6.44
				l7.576,2.083L105.304,64.885z"/>
			<path id="path1126" inkscape:connector-curvature="0" sodipodi:nodetypes="cccc" fill="#820545" d="M97.697,77.317l-7.955,3.409
				l7.576,2.462L97.697,77.317z"/>
			<path id="path1128" inkscape:connector-curvature="0" sodipodi:nodetypes="cccc" fill="#820545" d="M79.164,86.115l-1.326,10.228
				l7.008,0.947L79.164,86.115z"/>
			<path id="path1130" inkscape:connector-curvature="0" sodipodi:nodetypes="cccc" fill="#820545" d="M91.447,82.203l-6.061,2.652
				l4.924,5.872L91.447,82.203z"/>
			<path id="path1132" inkscape:connector-curvature="0" sodipodi:nodetypes="cccc" fill="#820545" d="M122.295,64.784l-5.019,1.515
				l3.693,1.989L122.295,64.784z"/>
			<path id="path1134" inkscape:connector-curvature="0" sodipodi:nodetypes="cccc" fill="#820545" d="M121.766,50.083l-1.862-3.645
				l-1.257,3.107L121.766,50.083z"/>
			<path id="path1136" inkscape:connector-curvature="0" sodipodi:nodetypes="cccc" fill="#820545" d="M127.243,52.104l-4.134,3.797
				l4.179,0.234L127.243,52.104z"/>
			<path id="path1138" inkscape:connector-curvature="0" sodipodi:nodetypes="cccc" fill="#820545" d="M117.247,59.598l-3.933,1.721
				l2.907,2.778L117.247,59.598z"/>
			<path id="path1140" inkscape:connector-curvature="0" sodipodi:nodetypes="cccc" fill="#820545" d="M120.736,45.569l-2.936-2.036
				l-1.989,2.983L120.736,45.569z"/>
			<path id="path1142" inkscape:connector-curvature="0" sodipodi:nodetypes="cccc" fill="#820545" d="M102.764,73.26l-4.406-1.747
				l1.148,5.208L102.764,73.26z"/>
			<path id="path1144" inkscape:connector-curvature="0" sodipodi:nodetypes="cccc" fill="#820545" d="M95.408,63.186l2.047,3.359
				l3.223-1.8L95.408,63.186z"/>
			<path id="path1146" inkscape:connector-curvature="0" sodipodi:nodetypes="cccc" fill="#820545" d="M108.496,63.045l-1.033,3.426
				l4.697,0.878L108.496,63.045z"/>
			<path id="path1148" inkscape:connector-curvature="0" sodipodi:nodetypes="cccc" fill="#820545" d="M95.927,72.534l-5.767,1.572
				l4.442,2.879L95.927,72.534z"/>
			<path id="path1150" inkscape:connector-curvature="0" sodipodi:nodetypes="cccc" fill="#820545" d="M81.497,107.048l-3.286,0.314
				l2.847,4.483L81.497,107.048z"/>
			<path id="path1152" inkscape:connector-curvature="0" sodipodi:nodetypes="cccc" fill="#820545" d="M76.81,106.02l-5.477-4.292
				l0.679,6.681L76.81,106.02z"/>
			<path id="path1154" inkscape:connector-curvature="0" sodipodi:nodetypes="cccc" fill="#820545" d="M74.24,93.823l-3.504,3.788
				l4.167,2.462L74.24,93.823z"/>
			<path id="path1156" inkscape:connector-curvature="0" sodipodi:nodetypes="cccc" fill="#820545" d="M74.903,87.762l-3.22,2.841
				h4.735L74.903,87.762z"/>
			<path id="path1158" inkscape:connector-curvature="0" sodipodi:nodetypes="cccc" fill="#820545" d="M86.636,88.293l-2.936,2.178
				l3.22,1.136L86.636,88.293z"/>
			<path id="path1160" inkscape:connector-curvature="0" sodipodi:nodetypes="cccc" fill="#820545" d="M107.715,58.621l-2.557-2.273
				l-1.894,3.693L107.715,58.621z"/>
			<path id="path1162" inkscape:connector-curvature="0" sodipodi:nodetypes="cccc" fill="#820545" d="M100.666,57.478l-3.221,1.872
				l3.036,1.239L100.666,57.478z"/>
			<path id="path1164" inkscape:connector-curvature="0" sodipodi:nodetypes="cccc" fill="#820545" d="M80.796,80.651l0.842,3.092
				l2.018-1.934L80.796,80.651z"/>
			<path id="path1166" inkscape:connector-curvature="0" sodipodi:nodetypes="cccc" fill="#820545" d="M90.77,65.474l-3.83,2.622
				l3.308,0.49L90.77,65.474z"/>
			<path id="path1168" inkscape:connector-curvature="0" sodipodi:nodetypes="cccc" fill="#820545" d="M125.913,58.27l0.223,3.45
				l4.216-4.144L125.913,58.27z"/>
			<path id="path1170" inkscape:connector-curvature="0" sodipodi:nodetypes="cccc" fill="#820545" d="M112.052,49.242l0.947-2.936
				l-4.924,0.284L112.052,49.242z"/>
			<path id="path4775" inkscape:connector-curvature="0" sodipodi:nodetypes="cccc" fill="#820545" d="M110.868,70.823l0.265,3.959
				l2.661-2.453L110.868,70.823z"/>
			<path id="path4781" inkscape:connector-curvature="0" sodipodi:nodetypes="cccc" fill="#820545" d="M101.613,87.54l-2.396-2.959
				l3.774-1.654L101.613,87.54z"/>
			<path id="path4783" inkscape:connector-curvature="0" sodipodi:nodetypes="cccc" fill="#820545" d="M93.507,93.731l1.079-7.244
				l4.187,3.867L93.507,93.731z"/>
			<path id="path4785" inkscape:connector-curvature="0" sodipodi:nodetypes="cccc" fill="#820545" d="M85.661,97.214l3.248,5.407
				l-5.966-0.284L85.661,97.214z"/>
			<path id="path4787" inkscape:connector-curvature="0" sodipodi:nodetypes="cccc" fill="#820545" d="M89.496,76.843l-4.508,0.909
				l3.513,1.885L89.496,76.843z"/>
			<path id="path4789" inkscape:connector-curvature="0" sodipodi:nodetypes="cccc" fill="#820545" d="M81.74,72.932l-2.519,1.373
				l2.718,1.023L81.74,72.932z"/>
			<path id="path4791" inkscape:connector-curvature="0" sodipodi:nodetypes="cccc" fill="#820545" d="M75.035,82.128l-4.015,0.653
				l3.21,1.326L75.035,82.128z"/>
			<path id="path4793" inkscape:connector-curvature="0" sodipodi:nodetypes="cccc" fill="#820545" d="M123.982,63.425l-2.535,0.39
				l0.459,2.973L123.982,63.425z"/>
			<path id="path4795" inkscape:connector-curvature="0" sodipodi:nodetypes="cccc" fill="#820545" d="M131.094,53.708l3.523,0.322
				l-1.468-3.58L131.094,53.708z"/>
			
				<path id="path4799" inkscape:transform-center-y="0.099218753" inkscape:connector-curvature="0" sodipodi:nodetypes="cccc" inkscape:transform-center-x="-0.033072917" fill="#820545" d="
				M105.138,49.301l-3.61-0.92l1.299,3.011L105.138,49.301z"/>
			<path id="path4803" inkscape:connector-curvature="0" sodipodi:nodetypes="cccc" fill="#820545" d="M69.422,93.997l-2.186-1.806
				l-0.39,2.849L69.422,93.997z"/>
			<path id="path5052" inkscape:connector-curvature="0" sodipodi:nodetypes="cccc" fill="#820545" d="M122.576,49.71l2.471-3.236
				l-3.836,0.31L122.576,49.71z"/>
			<path id="path5054" inkscape:connector-curvature="0" sodipodi:nodetypes="cccc" fill="#820545" d="M119.358,51.784l-1.541-1.733
				l-0.422,2.87L119.358,51.784z"/>
			<path id="path5056" inkscape:connector-curvature="0" sodipodi:nodetypes="cccc" fill="#820545" d="M107.782,53.054l3.646-1.065
				l-3.305-1.094L107.782,53.054z"/>
			<path id="path5060" inkscape:connector-curvature="0" sodipodi:nodetypes="cccc" fill="#820545" d="M68.134,103.203l1.367-2.511
				l-4.386,0.643L68.134,103.203z"/>
			<path id="path5068" inkscape:connector-curvature="0" sodipodi:nodetypes="cccc" fill="#820545" d="M73.317,75.976l-1.323-1.634
				l-0.111,2.369L73.317,75.976z"/>
		</g>
	</g>
</g>
</svg>
