<?xml version="1.0" encoding="UTF-8" standalone="no"?>
<svg
   xmlns:dc="http://purl.org/dc/elements/1.1/"
   xmlns:cc="http://creativecommons.org/ns#"
   xmlns:rdf="http://www.w3.org/1999/02/22-rdf-syntax-ns#"
   xmlns:svg="http://www.w3.org/2000/svg"
   xmlns="http://www.w3.org/2000/svg"
   xmlns:xlink="http://www.w3.org/1999/xlink"
   id="svg1223"
   version="1.1"
   viewBox="0 0 210 297"
   height="297mm"
   width="210mm">
  <defs
     id="defs1217">
    <clipPath
       id="clipPath3877"
       clipPathUnits="userSpaceOnUse">
      <use
         height="100%"
         width="100%"
         id="use3879"
         xlink:href="#g3873"
         y="0"
         x="0" />
    </clipPath>
  </defs>
  <metadata
     id="metadata1220">
    <rdf:RDF>
      <cc:Work
         rdf:about="">
        <dc:format>image/svg+xml</dc:format>
        <dc:type
           rdf:resource="http://purl.org/dc/dcmitype/StillImage" />
        <dc:title></dc:title>
      </cc:Work>
    </rdf:RDF>
  </metadata>
  <g
     id="layer1">
    <g
       style="fill:#ffffff"
       clip-path="url(#clipPath3877)"
       id="g3875">
      <g
         style="fill:#ffffff"
         id="g3873">
        <g
           id="g5218"
           transform="matrix(1.8495358,0,0,1.8495358,-168.64683,-58.145356)"
           style="stroke-width:0.54067624;fill:#ffffff">
          <g
             style="fill:#ffffff"
             id="g4759">
            <path
               id="path1193"
               d="m 159.30449,36.409721 c -1.71095,-0.17953 -1.94723,1.21608 -2.59761,2.07847 -0.39855,0.20025 -0.71391,-0.16841 -1.36,-0.19895 -1.46172,-1.54849 -1.31513,-0.75304 -3.51159,-1.91168 -0.40318,-0.38426 -0.56012,-0.44541 -1.03519,-0.3029 -2.54904,0.91524 -3.28821,2.02487 -4.43819,3.09034 -1.4091,0.0942 -2.45312,0.22878 -2.59252,0.41212 -0.22902,0.64517 0.18941,1.096 0.71849,1.51355 0.96062,-0.33937 1.93075,-0.65047 2.79373,-1.27895 0.79807,-0.99791 2.25729,-1.08503 3.4092,-1.8037 0.95966,1.04624 1.20178,1.11058 1.99229,1.4743 -1.78269,1.06086 -4.08385,3.86379 -5.97582,4.78565 -0.8033,0.37314 -2.33835,1.73067 -3.0451,3.3333 -0.47227,0.20277 -0.7808,0.47503 -1.07498,0.7533 -0.55567,0.57541 -1.67913,2.250057 -2.51874,3.375077 -0.49652,0.11727 -0.95182,0.40136 -1.38547,0.77271 -1.05415,0.86035 -1.75152,2.5898 -3.78994,4.37756 -0.66629,0.10256 -1.05636,0.29788 -1.2365,0.56381 -0.1536,0.34227 -0.12264,3.26294 0.70733,3.32218 0.52517,0.12033 0.85503,0.0117 1.2385,-0.0341 -0.003,-0.14738 0.0565,-0.28973 -0.14064,-0.4525 -0.19703,-0.0748 -0.40089,-0.12541 -0.54229,-0.39616 0.0512,-0.70914 0.298,-1.23448 0.53742,-1.76687 1.21008,-1.48117 2.81489,-2.78661 4.05181,-3.78306 0.49674,-0.30681 0.85617,-0.71153 1.52748,-0.89382 0.41426,-0.21737 0.64689,-0.59494 0.91332,-0.94269 1.62437,-1.07375 3.3397,-2.05611 4.79579,-3.298977 1.99405,0.82346 3.98017,1.04758 5.86762,1.850337 -1.19784,1.3265 -1.40734,2.78353 -3.17045,4.91224 -1.56798,1.32226 -0.49751,1.54174 0.99482,3.03606 0.54256,0.18895 0.81852,0.11737 1.14027,0.0905 0.064,-0.0804 0.1567,-0.10311 0.1191,-0.38784 -0.53761,-0.48693 -1.08018,-0.9678 -1.21339,-1.95 1.78167,-2.92893 4.46698,-4.41281 4.88715,-5.96749 -0.067,-1.120887 -2.8096,-3.460917 -5.41277,-4.092957 1.78414,-1.55893 3.23104,-1.06704 4.9332,-2.65376 0.50115,1.48315 1.62293,2.45131 2.49507,3.59648 2.80802,-1.9412 3.93856,-2.20497 5.02436,-2.69069 0.51433,-0.59819 0.94185,-0.73884 1.00807,-1.02339 0.097,-0.53963 0.16667,-1.29742 -0.18865,-1.51555 -0.62197,-0.18405 -1.703,1.18546 -2.31968,1.92841 -1.57774,0.81397 -1.61714,0.29282 -2.86882,0.73756 -0.18108,-1.09554 -0.55623,-1.58418 -1.20034,-2.24622 0.18032,-0.72181 0.20121,-1.38172 -0.0185,-1.94809 0.29859,-0.42081 0.6422,-0.71405 0.97998,-0.71197 0.47328,0.0951 0.40627,0.29593 0.82494,0.72742 0.2736,-0.0492 2.34686,-1.85634 2.28247,-3.03797 -0.1386,-0.78703 -0.80548,-1.39903 -1.60519,-1.44112 z"
               style="fill:#ffffff;fill-opacity:1;stroke:none;stroke-width:0.37847334;stroke-linecap:butt;stroke-linejoin:miter;stroke-miterlimit:4;stroke-dasharray:none;stroke-opacity:1" />
            <g
               style="fill:#ffffff"
               id="g4685">
              <path
                 style="fill:#ffffff;fill-opacity:1;stroke:none;stroke-width:0.1430539px;stroke-linecap:butt;stroke-linejoin:miter;stroke-opacity:1"
                 d="m 146.77561,35.704591 -0.70177,1.05265 1.73736,-0.33435 z"
                 id="path4642" />
              <path
                 style="fill:#ffffff;fill-opacity:1;stroke:none;stroke-width:0.1430539px;stroke-linecap:butt;stroke-linejoin:miter;stroke-opacity:1"
                 d="m 148.88091,36.039971 -0.16692,1.6707 1.73736,-1.20252 z"
                 id="path4640" />
              <path
                 style="fill:#ffffff;fill-opacity:1;stroke:none;stroke-width:0.1430539px;stroke-linecap:butt;stroke-linejoin:miter;stroke-opacity:1"
                 d="m 145.08165,36.683341 -1.73736,0.0997 1.40301,0.93586 z"
                 id="path4638" />
              <path
                 style="fill:#ffffff;fill-opacity:1;stroke:none;stroke-width:0.1430539px;stroke-linecap:butt;stroke-linejoin:miter;stroke-opacity:1"
                 d="m 147.51768,36.729841 -0.46819,1.42678 1.05885,-0.34778 z"
                 id="path4636" />
              <path
                 style="fill:#ffffff;fill-opacity:1;stroke:none;stroke-width:0.1430539px;stroke-linecap:butt;stroke-linejoin:miter;stroke-opacity:1"
                 d="m 146.66708,37.272961 -2.40553,1.40301 2.40553,0.66818 z"
                 id="path4634" />
              <path
                 style="fill:#ffffff;fill-opacity:1;stroke:none;stroke-width:0.1430539px;stroke-linecap:butt;stroke-linejoin:miter;stroke-opacity:1"
                 d="m 142.66009,37.942681 -0.66816,1.30277 1.56992,-0.50126 z"
                 id="path4632" />
              <path
                 style="fill:#ffffff;fill-opacity:1;stroke:none;stroke-width:0.1430539px;stroke-linecap:butt;stroke-linejoin:miter;stroke-opacity:1"
                 d="m 150.10668,38.728681 -1.45832,1.33945 1.47433,0.0827 z"
                 id="path4630" />
              <path
                 style="fill:#ffffff;fill-opacity:1;stroke:none;stroke-width:0.1430539px;stroke-linecap:butt;stroke-linejoin:miter;stroke-opacity:1"
                 d="m 151.01927,38.946761 -1.00252,1.93786 h 1.93787 z"
                 id="path4628" />
              <path
                 style="fill:#ffffff;fill-opacity:1;stroke:none;stroke-width:0.1430539px;stroke-linecap:butt;stroke-linejoin:miter;stroke-opacity:1"
                 d="m 142.23015,40.015941 -0.36432,1.20871 1.65674,0.30955 z"
                 id="path4626" />
              <path
                 style="fill:#ffffff;fill-opacity:1;stroke:none;stroke-width:0.1430539px;stroke-linecap:butt;stroke-linejoin:miter;stroke-opacity:1"
                 d="m 149.08141,40.550281 -2.60605,1.67069 3.20756,0.73485 z"
                 id="path4624" />
              <path
                 style="fill:#ffffff;fill-opacity:1;stroke:none;stroke-width:0.1430539px;stroke-linecap:butt;stroke-linejoin:miter;stroke-opacity:1"
                 d="m 140.73101,40.624181 -1.13636,0.66043 1.07126,0.43666 z"
                 id="path4622" />
              <path
                 style="fill:#ffffff;fill-opacity:1;stroke:none;stroke-width:0.1430539px;stroke-linecap:butt;stroke-linejoin:miter;stroke-opacity:1"
                 d="m 145.94879,41.138361 -1.38752,0.6072 1.02526,0.97979 z"
                 id="path4620" />
              <path
                 style="fill:#ffffff;fill-opacity:1;stroke:none;stroke-width:0.1430539px;stroke-linecap:butt;stroke-linejoin:miter;stroke-opacity:1"
                 d="m 150.117,41.151761 -0.40101,0.96893 1.53687,-0.66817 z"
                 id="path4618" />
              <path
                 style="fill:#ffffff;fill-opacity:1;stroke:none;stroke-width:0.1430539px;stroke-linecap:butt;stroke-linejoin:miter;stroke-opacity:1"
                 d="m 142.46632,42.354271 -1.00202,2.2717 2.67271,0.73535 z"
                 id="path4616" />
              <path
                 style="fill:#ffffff;fill-opacity:1;stroke:none;stroke-width:0.1430539px;stroke-linecap:butt;stroke-linejoin:miter;stroke-opacity:1"
                 d="m 138.87583,42.637971 0.72192,1.18494 1.1374,-0.6351 z"
                 id="path4614" />
              <path
                 style="fill:#ffffff;fill-opacity:1;stroke:none;stroke-width:0.1430539px;stroke-linecap:butt;stroke-linejoin:miter;stroke-opacity:1"
                 d="m 148.14607,42.755281 -1.77096,0.53433 1.30329,0.70177 z"
                 id="path4612" />
              <path
                 style="fill:#ffffff;fill-opacity:1;stroke:none;stroke-width:0.1430539px;stroke-linecap:butt;stroke-linejoin:miter;stroke-opacity:1"
                 d="m 144.80518,42.955791 0.33383,3.54138 2.13838,-1.8712 z"
                 id="path4610" />
              <path
                 style="fill:#ffffff;fill-opacity:1;stroke:none;stroke-width:0.1430539px;stroke-linecap:butt;stroke-linejoin:miter;stroke-opacity:1"
                 d="m 137.73585,43.775891 -1.35134,0.92501 1.16737,0.1726 z"
                 id="path4608" />
              <path
                 style="fill:#ffffff;fill-opacity:1;stroke:none;stroke-width:0.1430539px;stroke-linecap:butt;stroke-linejoin:miter;stroke-opacity:1"
                 d="m 139.05877,44.625971 -1.87069,1.30328 1.40301,0.26716 z"
                 id="path4606" />
              <path
                 style="fill:#ffffff;fill-opacity:1;stroke:none;stroke-width:0.1430539px;stroke-linecap:butt;stroke-linejoin:miter;stroke-opacity:1"
                 d="m 139.56571,45.143251 0.40515,1.83709 1.14928,-1.22111 z"
                 id="path4604" />
              <path
                 style="fill:#ffffff;fill-opacity:1;stroke:none;stroke-width:0.1430539px;stroke-linecap:butt;stroke-linejoin:miter;stroke-opacity:1"
                 d="m 135.56854,46.039831 0.29714,1.09038 0.71158,-0.68213 z"
                 id="path4602" />
              <path
                 style="fill:#ffffff;fill-opacity:1;stroke:none;stroke-width:0.1430539px;stroke-linecap:butt;stroke-linejoin:miter;stroke-opacity:1"
                 d="m 143.77165,46.190731 -2.27169,0.80202 0.55294,0.9741 h -3.66231 l 3.20755,2.13838 0.80667,-1.51826 0.49816,0.87798 z"
                 id="path4600" />
              <path
                 style="fill:#ffffff;fill-opacity:1;stroke:none;stroke-width:0.1430539px;stroke-linecap:butt;stroke-linejoin:miter;stroke-opacity:1"
                 d="m 137.78907,47.365851 -2.80603,1.20251 2.67271,0.86868 z"
                 id="path4598" />
              <path
                 style="fill:#ffffff;fill-opacity:1;stroke:none;stroke-width:0.1430539px;stroke-linecap:butt;stroke-linejoin:miter;stroke-opacity:1"
                 d="m 134.21461,47.799931 -1.03558,0.76843 1.13584,0.40101 z"
                 id="path4596" />
              <path
                 style="fill:#ffffff;fill-opacity:1;stroke:none;stroke-width:0.1430539px;stroke-linecap:butt;stroke-linejoin:miter;stroke-opacity:1"
                 d="m 136.5199,49.838051 -2.13836,0.935347 1.73736,2.0712 z"
                 id="path4594" />
              <path
                 style="fill:#ffffff;fill-opacity:1;stroke:none;stroke-width:0.1430539px;stroke-linecap:butt;stroke-linejoin:miter;stroke-opacity:1"
                 d="m 138.9921,49.904751 0.40101,2.739377 2.13785,-1.40301 z"
                 id="path4592" />
              <path
                 style="fill:#ffffff;fill-opacity:1;stroke:none;stroke-width:0.1430539px;stroke-linecap:butt;stroke-linejoin:miter;stroke-opacity:1"
                 d="m 132.91185,50.773438 -0.46819,3.60804 2.47273,0.33435 z"
                 id="path4590" />
              <path
                 style="fill:#ffffff;fill-opacity:1;stroke:none;stroke-width:0.1430539px;stroke-linecap:butt;stroke-linejoin:miter;stroke-opacity:1"
                 d="m 138.05676,50.973948 -1.6707,2.53886 2.20503,-0.0667 z"
                 id="path4588" />
              <path
                 style="fill:#ffffff;fill-opacity:1;stroke:none;stroke-width:0.1430539px;stroke-linecap:butt;stroke-linejoin:miter;stroke-opacity:1"
                 d="m 131.64216,51.307778 -1.13584,1.00252 h 1.67018 z"
                 id="path4586" />
              <path
                 style="fill:#ffffff;fill-opacity:1;stroke:none;stroke-width:0.1430539px;stroke-linecap:butt;stroke-linejoin:miter;stroke-opacity:1"
                 d="m 135.25022,53.379488 0.93533,2.67269 1.40353,-2.00452 z"
                 id="path4584" />
              <path
                 style="fill:#ffffff;fill-opacity:1;stroke:none;stroke-width:0.1430539px;stroke-linecap:butt;stroke-linejoin:miter;stroke-opacity:1"
                 d="m 131.40807,53.446188 -1.2361,1.33634 1.47019,0.86868 z"
                 id="path4582" />
              <path
                 style="fill:#ffffff;fill-opacity:1;stroke:none;stroke-width:0.1430539px;stroke-linecap:butt;stroke-linejoin:miter;stroke-opacity:1"
                 d="m 134.78254,55.384048 -2.87321,1.20251 1.93786,1.73736 z"
                 id="path4580" />
              <path
                 style="fill:#ffffff;fill-opacity:1;stroke:none;stroke-width:0.1430539px;stroke-linecap:butt;stroke-linejoin:miter;stroke-opacity:1"
                 d="m 130.38281,56.234638 0.23926,2.35696 1.69292,-0.84284 z"
                 id="path4578" />
              <path
                 style="fill:#ffffff;fill-opacity:1;stroke:none;stroke-width:0.1430539px;stroke-linecap:butt;stroke-linejoin:miter;stroke-opacity:1"
                 d="m 132.50272,58.661529 2.72238,0.03899 -1.18489,-1.041553 z"
                 id="path1195" />
              <path
                 id="path4644"
                 d="m 129.05695,55.640353 -1.06302,-0.7051 0.48244,1.589663 z"
                 style="fill:#ffffff;fill-opacity:1;stroke:none;stroke-width:0.1430539px;stroke-linecap:butt;stroke-linejoin:miter;stroke-opacity:1" />
            </g>
          </g>
        </g>
      </g>
    </g>
  </g>
</svg>
