<?xml version="1.0" encoding="utf-8"?>
<!-- Generator: Adobe Illustrator 17.0.0, SVG Export Plug-In . SVG Version: 6.00 Build 0)  -->
<!DOCTYPE svg PUBLIC "-//W3C//DTD SVG 1.1//EN" "http://www.w3.org/Graphics/SVG/1.1/DTD/svg11.dtd">
<svg version="1.1" id="Ebene_1" xmlns="http://www.w3.org/2000/svg" xmlns:xlink="http://www.w3.org/1999/xlink" x="0px" y="0px"
	 width="841.89px" height="595.28px" viewBox="0 0 841.89 595.28" enable-background="new 0 0 841.89 595.28" xml:space="preserve">
<path d="M461.319,161.677c-0.446,1.116-0.893,2.157-1.192,3.271c0.446,0.671,0.82,1.268,1.192,1.939
	c7.372,12.365,7.896,30.093,0,42.979c-0.746,1.201-1.562,2.385-2.46,3.508v16.162h2.46l37.395-0.077v-66.592l9.017,0.068v-15.941
	h-22.87C472.94,147.447,465.047,153.328,461.319,161.677z"/>
<path d="M778.588,112.654l-38.737,0.076h-1.486l0.222,87.305c-0.146,3.054,0.297,6.185,1.265,9.238
	c3.206,10.503,12.295,19.895,23.539,19.967h37.547l0.075-14.598h-22.124l-0.078-51.775h22.499v-19.514h-22.5L778.588,112.654z"/>
<polygon points="106.135,229.24 119.466,179.328 133.025,229.384 178.021,229.384 197.091,149.528 205.878,112.805 197.091,112.805 
	161.257,112.88 150.752,169.572 136.825,112.654 103.152,112.73 88.327,170.093 77.898,112.579 32.236,112.579 60.694,229.317 "/>
<path d="M227.556,146.844c-10.057,0.082-20.484,3.731-29.197,11.847l-1.268,5.067l-8.793,36.058
	c2.013,6.327,5.067,11.621,8.793,15.867c8.046,9.089,19.22,13.485,30.464,13.408c16.984,0,33.895-10.06,39.634-28.98
	c0.15-0.225,0.226-0.519,0.298-0.746h-0.298h-39.634h-9.683v-8.709l9.683-0.078l39.634-0.072h1.561
	c0.078-4.773-0.447-9.237-1.561-13.341C262.121,158.247,245.364,146.775,227.556,146.844z M227.556,177.836h-9.233
	c0.817-3.273,3.125-6.107,6.48-7.073c0.895-0.227,1.788-0.302,2.753-0.302h0.08c0.965,0,2.008,0.075,2.901,0.369
	c3.428,1.048,5.214,3.885,6.26,7.081L227.556,177.836z"/>
<path d="M552.5,186.4h10.429l-0.072,42.84h40.525l-0.152-38.813c0.374-26.962-17.581-43.727-50.729-43.652v-52.52h-40.825
	l0.152,163.89l40.596-0.077L552.5,186.4z"/>
<path d="M646.662,229.168h0.291c15.424-0.152,29.058-8.937,36.133-21.609c3.203-5.805,5.064-12.441,5.145-19.439
	c-0.374-7.229-2.163-13.709-5.145-19.446c-6.851-13.256-19.966-21.679-36.133-22.048h-0.145
	c-22.567,0.671-42.013,18.398-40.97,41.94C605.762,211.212,624.091,229.09,646.662,229.168z M646.953,178.357
	c6.107,0.075,9.172,5.142,9.768,9.907c-0.077,3.875-3.28,8.65-9.688,9.463h-0.08c-3.943,0-9.752-2.901-9.752-9.463
	C636.979,182.903,640.846,178.432,646.953,178.357z"/>
<path d="M683.086,112.73h-4.689l-0.449,44.03c1.938,2.082,3.649,4.245,5.139,6.4c11.701,17.209,9.383,36.655,0,50.282
	c-0.521,0.746-1.112,1.495-1.637,2.241c0.375,0.888,0.969,1.789,1.637,2.751c3.8,5.22,11.324,10.883,18.252,10.95h38.513h1.415
	l-0.217-14.742h-1.198h-21.378l0.147-101.913h-35.535V112.73z"/>
<path d="M267.189,168.001c0,0.076-0.076,0.153-0.151,0.229c0.075,0.151,0.151,0.294,0.151,0.377
	c4.765,10.051,5.066,16.828,4.391,27.562l40.236,0.067l-0.081,8.572h-44.546h-1.493c0.452,0.965,0.973,1.856,1.493,2.751
	c18.769,31.288,58.777,26.077,72.632,0.152c3.797-7.155,5.583-15.792,4.467-25.631h-4.467l-44.846-0.067v-8.718l44.846-0.075h2.087
	c-0.603-1.645-1.345-3.127-2.087-4.614C325.294,141.112,284.842,138.655,267.189,168.001z"/>
<path d="M339.821,112.654h-4.472v44.769c1.639,1.87,3.128,3.801,4.472,5.813c10.277,15.422,10.799,34.718,0,50.139
	c-0.596,0.813-1.191,1.636-1.787,2.382c0.596,0.965,1.191,1.856,1.787,2.754c5.214,7.147,12.813,11.097,21.973,11.178h28.233h8.121
	v-14.384h-8.121h-14.304l0.079-52.589l14.226-0.074h8.498v-19.073h-8.498h-14.304l0.079-30.915L339.821,112.654L339.821,112.654z"/>
<path d="M422.807,190.505l38.513-0.078l2.46-0.075c0.374-5.888-0.599-11.477-2.46-16.536c-5.808-16.017-21.159-27.267-38.513-27.116
	c-6.778,0.075-13.856,1.862-20.856,5.813v13.409l-11.923,0.066h-2.308c-8.793,13.189-8.197,33.375,1.716,46.044h0.591l11.474-0.075
	l0.08,11.543c6.771,3.878,14.153,5.667,21.226,5.667c16.464-0.078,32.184-9.838,38.513-26.449c0.452-1.192,0.894-2.382,1.265-3.65
	h-1.265h-38.513l-10.278-0.075v-8.417L422.807,190.505z M419.828,169.789c0.891-0.294,1.938-0.444,2.979-0.444h0.075
	c1.043,0.076,2.157,0.15,3.206,0.52c3.647,1.117,5.73,4.171,6.775,7.676h-10.057l-10.054-0.074
	C413.646,173.893,416.175,170.83,419.828,169.789z"/>
</svg>
